<svg xmlns="http://www.w3.org/2000/svg" viewBox="0 0 416 338" width="416" height="338" role="img" aria-label="Supi Wall Art"><title>Supi Wall Art</title><rect width="416.02" height="338" fill="#F5F2EC"/><g transform="translate(145.73 23.96) scale(1.0381)"><path d="M10 150V60a50 50 0 0 1 100 0v90" fill="none" stroke="#171717" stroke-width="4.5" stroke-linecap="round"/>
<g transform="translate(60 124) scale(1.15) translate(-60 -124)"><path d="M60 124C44 121 31 108 27 88c15 4 28 16 33 36z" fill="#C98A6E"/>
<path d="M60 124c16-3 29-16 33-36-15 4-28 16-33 36z" fill="#C98A6E"/>
<path d="M60 70c12 15 14 38 0 54-14-16-12-39 0-54z" fill="#A65A3F"/>
<path d="M35 137q25-7 50 0" fill="none" stroke="#A65A3F" stroke-width="3" stroke-linecap="round"/></g></g><g transform="translate(32.00 270.00) scale(1.0000)"><path d="M15.36 -43.14Q18.36 -43.14 19.92 -42.45Q21.48 -41.76 22.68 -40.92Q23.40 -40.50 23.85 -40.29Q24.30 -40.08 24.72 -40.08Q25.32 -40.08 25.59 -40.74Q25.86 -41.40 26.04 -42.72L27.42 -42.72Q27.36 -41.70 27.27 -40.29Q27.18 -38.88 27.15 -36.57Q27.12 -34.26 27.12 -30.48L25.74 -30.48Q25.56 -33.36 24.48 -36.00Q23.40 -38.64 21.33 -40.32Q19.26 -42.00 15.90 -42.00Q12.72 -42.00 10.65 -40.08Q8.58 -38.16 8.58 -35.04Q8.58 -32.34 9.96 -30.51Q11.34 -28.68 13.65 -27.21Q15.96 -25.74 18.66 -24.06Q21.78 -22.14 24.21 -20.25Q26.64 -18.36 28.05 -16.08Q29.46 -13.80 29.46 -10.56Q29.46 -6.72 27.72 -4.20Q25.98 -1.68 23.10 -0.42Q20.22 0.84 16.74 0.84Q13.56 0.84 11.70 0.12Q9.84 -0.60 8.52 -1.38Q7.20 -2.22 6.48 -2.22Q5.88 -2.22 5.61 -1.56Q5.34 -0.90 5.16 0.42L3.78 0.42Q3.90 -0.84 3.93 -2.55Q3.96 -4.26 3.99 -7.02Q4.02 -9.78 4.02 -13.98L5.40 -13.98Q5.64 -10.38 6.75 -7.26Q7.86 -4.14 10.17 -2.25Q12.48 -0.36 16.32 -0.36Q18.30 -0.36 20.07 -1.17Q21.84 -1.98 22.98 -3.75Q24.12 -5.52 24.12 -8.34Q24.12 -10.80 22.95 -12.63Q21.78 -14.46 19.68 -16.05Q17.58 -17.64 14.76 -19.32Q11.94 -21.06 9.48 -22.86Q7.02 -24.66 5.55 -27.03Q4.08 -29.40 4.08 -32.76Q4.08 -36.30 5.67 -38.61Q7.26 -40.92 9.84 -42.03Q12.42 -43.14 15.36 -43.14ZM61.38 -31.56L61.38 -6.48Q61.38 -3.78 62.37 -2.49Q63.36 -1.20 65.94 -1.20L65.94 0.06Q64.08 -0.12 62.22 -0.12Q60.48 -0.12 58.89 0.06Q57.30 0.24 55.98 0.72L55.98 -6.36Q54.48 -2.46 51.75 -0.81Q49.02 0.84 46.14 0.84Q44.04 0.84 42.48 0.24Q40.92 -0.36 39.90 -1.44Q38.76 -2.64 38.34 -4.56Q37.92 -6.48 37.92 -9.30L37.92 -24.36Q37.92 -27.06 36.96 -28.35Q36.00 -29.64 33.36 -29.64L33.36 -30.90Q35.28 -30.72 37.08 -30.72Q38.82 -30.72 40.41 -30.93Q42.00 -31.14 43.32 -31.56L43.32 -7.98Q43.32 -6.12 43.56 -4.56Q43.80 -3.00 44.76 -2.04Q45.72 -1.08 47.88 -1.08Q50.22 -1.08 52.05 -2.52Q53.88 -3.96 54.93 -6.42Q55.98 -8.88 55.98 -11.94L55.98 -24.36Q55.98 -27.06 55.02 -28.35Q54.06 -29.64 51.42 -29.64L51.42 -30.90Q53.34 -30.72 55.14 -30.72Q56.88 -30.72 58.47 -30.93Q60.06 -31.14 61.38 -31.56ZM78.54 -31.56L78.54 5.28Q78.54 7.86 80.07 8.73Q81.60 9.60 84.30 9.60L84.30 10.86Q82.98 10.80 80.64 10.71Q78.30 10.62 75.66 10.62Q73.80 10.62 71.97 10.71Q70.14 10.80 69.18 10.86L69.18 9.60Q71.34 9.60 72.24 8.82Q73.14 8.04 73.14 5.88L73.14 -24.36Q73.14 -27.06 72.18 -28.35Q71.22 -29.64 68.58 -29.64L68.58 -30.90Q70.50 -30.72 72.30 -30.72Q74.04 -30.72 75.63 -30.93Q77.22 -31.14 78.54 -31.56ZM88.14 -31.74Q91.32 -31.74 93.84 -30.03Q96.36 -28.32 97.83 -25.02Q99.30 -21.72 99.30 -16.86Q99.30 -13.62 98.52 -10.47Q97.74 -7.32 96.09 -4.77Q94.44 -2.22 91.83 -0.69Q89.22 0.84 85.56 0.84Q82.74 0.84 80.67 -0.48Q78.60 -1.80 77.88 -3.66L78.48 -4.50Q79.32 -2.82 80.91 -1.68Q82.50 -0.54 84.90 -0.54Q88.26 -0.54 90.12 -2.64Q91.98 -4.74 92.73 -8.25Q93.48 -11.76 93.48 -16.02Q93.48 -20.82 92.70 -23.88Q91.92 -26.94 90.36 -28.44Q88.80 -29.94 86.52 -29.94Q83.58 -29.94 81.18 -27.51Q78.78 -25.08 78.12 -20.16L77.40 -21.00Q78.06 -26.10 81.03 -28.92Q84.00 -31.74 88.14 -31.74ZM110.70 -45.90Q112.26 -45.90 113.40 -44.76Q114.54 -43.62 114.54 -42.06Q114.54 -40.50 113.40 -39.36Q112.26 -38.22 110.70 -38.22Q109.14 -38.22 108.00 -39.36Q106.86 -40.50 106.86 -42.06Q106.86 -43.62 108.00 -44.76Q109.14 -45.90 110.70 -45.90ZM113.82 -31.56L113.82 -5.58Q113.82 -3.06 114.87 -2.16Q115.92 -1.26 118.38 -1.26L118.38 0.00Q117.36 -0.06 115.29 -0.15Q113.22 -0.24 111.12 -0.24Q109.08 -0.24 106.98 -0.15Q104.88 -0.06 103.86 0.00L103.86 -1.26Q106.32 -1.26 107.37 -2.16Q108.42 -3.06 108.42 -5.58L108.42 -24.36Q108.42 -27.06 107.46 -28.35Q106.50 -29.64 103.86 -29.64L103.86 -30.90Q105.78 -30.72 107.58 -30.72Q109.32 -30.72 110.91 -30.93Q112.50 -31.14 113.82 -31.56Z" fill="#171717"/><g transform="translate(134.64 0)"><path d="M31.20 -28.32L14.16 0.30L13.20 0.30L8.46 -37.44Q8.16 -39.78 7.14 -40.50Q6.12 -41.22 5.16 -41.28L5.40 -42.48Q6.60 -42.42 8.13 -42.36Q9.66 -42.30 11.34 -42.30Q13.32 -42.30 15.03 -42.36Q16.74 -42.42 17.82 -42.48L17.58 -41.28Q15.54 -41.16 14.70 -40.20Q13.86 -39.24 14.22 -36.24L17.64 -7.08L17.10 -6.84L30.66 -29.76ZM50.58 -32.76Q52.32 -36.24 52.53 -38.04Q52.74 -39.84 51.60 -40.53Q50.46 -41.22 47.94 -41.28L48.24 -42.48Q49.38 -42.42 50.55 -42.39Q51.72 -42.36 52.89 -42.33Q54.06 -42.30 55.08 -42.30Q56.64 -42.30 57.66 -42.36Q58.68 -42.42 59.64 -42.48L59.34 -41.28Q58.50 -41.10 57.54 -40.62Q56.58 -40.14 55.59 -39.06Q54.60 -37.98 53.64 -36.06L35.70 0.30L34.74 0.30L28.80 -37.44Q28.44 -39.72 27.69 -40.47Q26.94 -41.22 26.10 -41.28L26.34 -42.48Q27.42 -42.42 28.80 -42.36Q30.18 -42.30 31.68 -42.30Q34.02 -42.30 36.06 -42.36Q38.10 -42.42 39.36 -42.48L39.12 -41.28Q36.00 -41.16 35.04 -40.26Q34.08 -39.36 34.56 -36.24L38.94 -8.40L38.52 -8.28ZM62.04 -1.08Q63.48 -1.08 65.34 -2.91Q67.20 -4.74 69.12 -7.86Q71.04 -10.98 72.66 -14.94Q74.28 -18.90 75.24 -23.16L74.22 -16.68Q71.94 -10.32 69.66 -6.45Q67.38 -2.58 65.04 -0.87Q62.70 0.84 60.30 0.84Q57.48 0.84 56.07 -1.20Q54.66 -3.24 54.66 -6.42Q54.66 -9.30 55.62 -12.69Q56.58 -16.08 58.29 -19.44Q60.00 -22.80 62.22 -25.56Q64.44 -28.32 67.05 -30.00Q69.66 -31.68 72.36 -31.68Q74.46 -31.68 75.57 -29.61Q76.68 -27.54 76.02 -23.82L75.36 -23.46Q75.78 -26.64 74.94 -28.59Q74.10 -30.54 72.18 -30.54Q70.62 -30.54 68.91 -29.01Q67.20 -27.48 65.61 -24.87Q64.02 -22.26 62.73 -19.02Q61.44 -15.78 60.69 -12.33Q59.94 -8.88 59.94 -5.70Q59.94 -3.12 60.51 -2.10Q61.08 -1.08 62.04 -1.08ZM77.16 -30.84Q78.60 -30.90 80.04 -31.08Q81.48 -31.26 82.68 -31.68L75.18 -5.16Q75.06 -4.62 74.85 -3.75Q74.64 -2.88 74.85 -2.16Q75.06 -1.44 76.08 -1.44Q77.28 -1.44 78.42 -2.76Q79.56 -4.08 80.70 -7.56L81.42 -9.78L82.56 -9.78L81.06 -5.40Q80.22 -3.00 79.05 -1.65Q77.88 -0.30 76.62 0.27Q75.36 0.84 74.16 0.84Q71.82 0.84 70.86 -0.72Q70.08 -2.10 70.44 -3.93Q70.80 -5.76 71.28 -7.62ZM91.62 -5.10Q91.14 -3.36 91.32 -2.37Q91.50 -1.38 92.64 -1.38Q93.84 -1.38 94.89 -2.73Q95.94 -4.08 97.14 -7.50L97.92 -9.72L99.06 -9.72L97.56 -5.34Q96.78 -3.06 95.67 -1.71Q94.56 -0.36 93.24 0.24Q91.92 0.84 90.36 0.84Q88.38 0.84 87.45 0.09Q86.52 -0.66 86.31 -1.92Q86.10 -3.18 86.37 -4.65Q86.64 -6.12 87.06 -7.56L96.84 -40.02Q97.44 -42.06 96.72 -43.02Q96.00 -43.98 93.06 -43.98L93.48 -45.24Q96.78 -45.30 99.30 -45.93Q101.82 -46.56 104.16 -47.70ZM108.24 -5.10Q107.76 -3.36 107.94 -2.37Q108.12 -1.38 109.26 -1.38Q110.46 -1.38 111.51 -2.73Q112.56 -4.08 113.76 -7.50L114.54 -9.72L115.68 -9.72L114.18 -5.34Q113.40 -3.06 112.29 -1.71Q111.18 -0.36 109.86 0.24Q108.54 0.84 106.98 0.84Q105.00 0.84 104.07 0.09Q103.14 -0.66 102.93 -1.92Q102.72 -3.18 102.99 -4.65Q103.26 -6.12 103.68 -7.56L113.46 -40.02Q114.06 -42.06 113.34 -43.02Q112.62 -43.98 109.68 -43.98L110.10 -45.24Q113.40 -45.30 115.92 -45.93Q118.44 -46.56 120.78 -47.70ZM138.72 -9.72Q136.50 -6.60 136.05 -4.74Q135.60 -2.88 136.74 -2.07Q137.88 -1.26 140.34 -1.20L140.04 0.00Q138.36 -0.12 136.56 -0.15Q134.76 -0.18 133.20 -0.18Q131.70 -0.18 130.68 -0.15Q129.66 -0.12 128.70 0.00L129.00 -1.20Q129.84 -1.38 130.74 -1.95Q131.64 -2.52 132.72 -3.60Q133.80 -4.68 135.00 -6.42L160.86 -42.78Q161.10 -42.78 161.31 -42.78Q161.52 -42.78 161.76 -42.78L164.16 -5.04Q164.34 -2.88 165.27 -2.07Q166.20 -1.26 167.10 -1.20L166.86 0.00Q165.66 -0.12 163.86 -0.15Q162.06 -0.18 160.32 -0.18Q158.16 -0.18 156.24 -0.15Q154.32 -0.12 153.12 0.00L153.36 -1.20Q156.24 -1.32 157.44 -2.25Q158.64 -3.18 158.52 -6.24L156.90 -35.88L157.32 -36.00ZM143.52 -17.28L161.04 -17.28L160.56 -16.08L142.44 -16.08ZM178.92 0.00L173.70 0.00L180.90 -25.74Q181.50 -27.78 181.29 -28.62Q181.08 -29.46 180.06 -29.46Q178.74 -29.46 177.66 -28.08Q176.58 -26.70 175.38 -23.34L174.60 -21.12L173.46 -21.12L174.96 -25.50Q175.86 -28.02 177.09 -29.34Q178.32 -30.66 179.67 -31.17Q181.02 -31.68 182.22 -31.68Q184.02 -31.68 184.77 -30.90Q185.52 -30.12 185.61 -28.86Q185.70 -27.60 185.43 -26.13Q185.16 -24.66 184.80 -23.28ZM194.34 -30.18Q192.96 -30.18 191.49 -28.89Q190.02 -27.60 188.49 -25.17Q186.96 -22.74 185.43 -19.35Q183.90 -15.96 182.43 -11.82Q180.96 -7.68 179.58 -2.88L181.08 -10.56Q183.06 -16.44 184.77 -20.46Q186.48 -24.48 188.16 -26.97Q189.84 -29.46 191.61 -30.57Q193.38 -31.68 195.36 -31.68Q197.04 -31.68 197.97 -30.72Q198.90 -29.76 198.90 -28.26Q198.90 -27.06 198.30 -26.07Q197.70 -25.08 196.77 -24.51Q195.84 -23.94 194.70 -23.94Q193.68 -23.94 192.99 -24.51Q192.30 -25.08 192.30 -26.10Q192.30 -27.06 192.66 -27.81Q193.02 -28.56 193.62 -29.10Q194.22 -29.64 195.00 -29.94Q194.88 -30.06 194.73 -30.12Q194.58 -30.18 194.34 -30.18ZM219.72 -30.84L219.54 -29.64L200.88 -29.64L201.18 -30.84ZM204.48 -5.10Q203.94 -3.12 204.75 -2.25Q205.56 -1.38 206.88 -1.38Q208.20 -1.38 209.55 -2.52Q210.90 -3.66 212.22 -7.38L213.06 -9.72L214.20 -9.72L212.94 -5.94Q211.62 -2.04 209.55 -0.60Q207.48 0.84 204.72 0.84Q202.26 0.84 200.97 -0.21Q199.68 -1.26 199.44 -3.18Q199.20 -5.10 199.92 -7.56L209.22 -39.96Q210.66 -40.02 212.07 -40.20Q213.48 -40.38 214.62 -40.80Z" fill="#A65A3F"/></g></g><g transform="translate(84.93 306.00) scale(1.0000)"><path d="M0.30 0.00L3.41 -8.73L5.05 -8.73L8.21 0.00L6.76 0.00L5.06 -4.86Q4.86 -5.45 4.63 -6.25Q4.39 -7.05 4.08 -8.18L4.35 -8.18Q4.05 -7.04 3.81 -6.23Q3.58 -5.42 3.39 -4.86L1.75 0.00ZM1.98 -2.30L1.98 -3.42L6.52 -3.42L6.52 -2.30ZM13.31 0.00L13.31 -8.73L16.44 -8.73Q17.45 -8.73 18.12 -8.38Q18.79 -8.03 19.13 -7.41Q19.46 -6.79 19.46 -5.99Q19.46 -5.18 19.13 -4.57Q18.79 -3.97 18.12 -3.63Q17.44 -3.30 16.43 -3.30L14.08 -3.30L14.08 -4.44L16.30 -4.44Q16.94 -4.44 17.34 -4.62Q17.74 -4.81 17.92 -5.15Q18.11 -5.50 18.11 -5.99Q18.11 -6.48 17.92 -6.84Q17.74 -7.20 17.34 -7.39Q16.94 -7.59 16.29 -7.59L14.65 -7.59L14.65 0.00ZM18.28 0.00L16.16 -3.95L17.64 -3.95L19.80 0.00ZM24.49 -7.58L24.49 -8.73L31.27 -8.73L31.27 -7.58L28.55 -7.58L28.55 0.00L27.21 0.00L27.21 -7.58ZM52.91 -2.49Q52.40 -2.49 51.97 -2.74Q51.54 -2.99 51.29 -3.42Q51.04 -3.85 51.04 -4.37Q51.04 -4.89 51.29 -5.31Q51.54 -5.74 51.97 -5.99Q52.40 -6.24 52.91 -6.24Q53.43 -6.24 53.86 -5.99Q54.28 -5.74 54.53 -5.31Q54.79 -4.89 54.79 -4.37Q54.79 -3.85 54.53 -3.42Q54.28 -2.99 53.86 -2.74Q53.43 -2.49 52.91 -2.49ZM76.69 0.00L74.32 -8.73L75.73 -8.73L76.99 -3.73Q77.11 -3.26 77.21 -2.76Q77.31 -2.27 77.40 -1.76Q77.50 -1.25 77.58 -0.74L77.39 -0.74Q77.48 -1.25 77.58 -1.76Q77.68 -2.27 77.78 -2.76Q77.89 -3.26 78.01 -3.73L79.31 -8.73L80.77 -8.73L82.06 -3.73Q82.18 -3.26 82.29 -2.76Q82.39 -2.27 82.49 -1.76Q82.60 -1.25 82.69 -0.74L82.48 -0.74Q82.57 -1.25 82.67 -1.76Q82.76 -2.27 82.87 -2.76Q82.97 -3.26 83.08 -3.73L84.34 -8.73L85.76 -8.73L83.38 0.00L81.84 0.00L80.45 -5.18Q80.29 -5.78 80.16 -6.50Q80.02 -7.21 79.88 -8.07L80.19 -8.07Q80.04 -7.25 79.92 -6.55Q79.80 -5.85 79.62 -5.18L78.24 0.00ZM89.45 0.00L92.56 -8.73L94.20 -8.73L97.36 0.00L95.92 0.00L94.22 -4.86Q94.02 -5.45 93.78 -6.25Q93.55 -7.05 93.24 -8.18L93.51 -8.18Q93.20 -7.04 92.97 -6.23Q92.73 -5.42 92.55 -4.86L90.90 0.00ZM91.14 -2.30L91.14 -3.42L95.68 -3.42L95.68 -2.30ZM102.47 0.00L102.47 -8.73L103.81 -8.73L103.81 -1.15L107.76 -1.15L107.76 0.00ZM113.09 0.00L113.09 -8.73L114.43 -8.73L114.43 -1.15L118.38 -1.15L118.38 0.00ZM126.65 0.14Q125.67 0.14 124.95 -0.17Q124.23 -0.48 123.82 -1.05Q123.41 -1.63 123.37 -2.43L124.71 -2.43Q124.75 -1.95 125.02 -1.64Q125.29 -1.33 125.72 -1.18Q126.14 -1.02 126.64 -1.02Q127.20 -1.02 127.63 -1.20Q128.06 -1.37 128.31 -1.69Q128.56 -2.01 128.56 -2.43Q128.56 -2.81 128.34 -3.05Q128.13 -3.30 127.75 -3.46Q127.38 -3.62 126.91 -3.74L125.88 -4.02Q124.81 -4.31 124.21 -4.88Q123.61 -5.44 123.61 -6.33Q123.61 -7.09 124.02 -7.66Q124.43 -8.22 125.13 -8.54Q125.83 -8.85 126.71 -8.85Q127.60 -8.85 128.29 -8.53Q128.97 -8.22 129.36 -7.67Q129.75 -7.13 129.77 -6.43L128.46 -6.43Q128.40 -7.03 127.91 -7.36Q127.42 -7.69 126.68 -7.69Q126.15 -7.69 125.76 -7.52Q125.37 -7.36 125.16 -7.07Q124.95 -6.78 124.95 -6.41Q124.95 -6.00 125.20 -5.74Q125.46 -5.48 125.82 -5.34Q126.19 -5.19 126.52 -5.10L127.37 -4.88Q127.78 -4.77 128.23 -4.59Q128.67 -4.41 129.04 -4.13Q129.42 -3.84 129.65 -3.42Q129.88 -3.00 129.88 -2.41Q129.88 -1.67 129.50 -1.09Q129.12 -0.52 128.40 -0.19Q127.67 0.14 126.65 0.14ZM151.62 -2.49Q151.10 -2.49 150.68 -2.74Q150.25 -2.99 150.00 -3.42Q149.74 -3.85 149.74 -4.37Q149.74 -4.89 150.00 -5.31Q150.25 -5.74 150.68 -5.99Q151.10 -6.24 151.62 -6.24Q152.14 -6.24 152.56 -5.99Q152.99 -5.74 153.24 -5.31Q153.49 -4.89 153.49 -4.37Q153.49 -3.85 153.24 -3.42Q152.99 -2.99 152.56 -2.74Q152.14 -2.49 151.62 -2.49ZM176.63 0.14Q175.65 0.14 174.93 -0.17Q174.21 -0.48 173.80 -1.05Q173.39 -1.63 173.35 -2.43L174.69 -2.43Q174.73 -1.95 175.00 -1.64Q175.27 -1.33 175.69 -1.18Q176.12 -1.02 176.62 -1.02Q177.18 -1.02 177.61 -1.20Q178.04 -1.37 178.29 -1.69Q178.54 -2.01 178.54 -2.43Q178.54 -2.81 178.32 -3.05Q178.11 -3.30 177.73 -3.46Q177.36 -3.62 176.89 -3.74L175.86 -4.02Q174.79 -4.31 174.19 -4.88Q173.59 -5.44 173.59 -6.33Q173.59 -7.09 174.00 -7.66Q174.41 -8.22 175.11 -8.54Q175.81 -8.85 176.69 -8.85Q177.58 -8.85 178.26 -8.53Q178.95 -8.22 179.34 -7.67Q179.73 -7.13 179.75 -6.43L178.44 -6.43Q178.38 -7.03 177.89 -7.36Q177.40 -7.69 176.66 -7.69Q176.13 -7.69 175.74 -7.52Q175.35 -7.36 175.14 -7.07Q174.92 -6.78 174.92 -6.41Q174.92 -6.00 175.18 -5.74Q175.43 -5.48 175.80 -5.34Q176.17 -5.19 176.50 -5.10L177.34 -4.88Q177.76 -4.77 178.20 -4.59Q178.65 -4.41 179.02 -4.13Q179.40 -3.84 179.63 -3.42Q179.86 -3.00 179.86 -2.41Q179.86 -1.67 179.48 -1.09Q179.10 -0.52 178.38 -0.19Q177.65 0.14 176.63 0.14ZM184.78 -7.58L184.78 -8.73L191.56 -8.73L191.56 -7.58L188.84 -7.58L188.84 0.00L187.51 0.00L187.51 -7.58ZM200.17 0.12Q199.03 0.12 198.14 -0.42Q197.25 -0.96 196.74 -1.96Q196.22 -2.96 196.22 -4.36Q196.22 -5.76 196.74 -6.77Q197.25 -7.77 198.14 -8.31Q199.03 -8.85 200.17 -8.85Q201.30 -8.85 202.19 -8.31Q203.08 -7.77 203.59 -6.77Q204.10 -5.76 204.10 -4.36Q204.10 -2.96 203.59 -1.96Q203.08 -0.96 202.19 -0.42Q201.30 0.12 200.17 0.12ZM200.17 -1.10Q200.91 -1.10 201.50 -1.47Q202.09 -1.85 202.43 -2.58Q202.77 -3.31 202.77 -4.36Q202.77 -5.42 202.43 -6.15Q202.09 -6.88 201.50 -7.26Q200.91 -7.63 200.17 -7.63Q199.42 -7.63 198.83 -7.25Q198.23 -6.88 197.89 -6.15Q197.55 -5.42 197.55 -4.36Q197.55 -3.31 197.89 -2.58Q198.23 -1.85 198.83 -1.48Q199.42 -1.10 200.17 -1.10ZM209.57 0.00L209.57 -8.73L212.69 -8.73Q213.71 -8.73 214.38 -8.38Q215.05 -8.03 215.38 -7.41Q215.72 -6.79 215.72 -5.99Q215.72 -5.18 215.38 -4.57Q215.05 -3.97 214.37 -3.63Q213.70 -3.30 212.68 -3.30L210.33 -3.30L210.33 -4.44L212.55 -4.44Q213.20 -4.44 213.60 -4.62Q213.99 -4.81 214.18 -5.15Q214.37 -5.50 214.37 -5.99Q214.37 -6.48 214.18 -6.84Q213.99 -7.20 213.59 -7.39Q213.19 -7.59 212.55 -7.59L210.91 -7.59L210.91 0.00ZM214.53 0.00L212.42 -3.95L213.90 -3.95L216.05 0.00ZM222.52 -8.73L222.52 0.00L221.18 0.00L221.18 -8.73ZM228.29 0.00L228.29 -8.73L233.79 -8.73L233.79 -7.58L229.63 -7.58L229.63 -4.98L233.49 -4.98L233.49 -3.84L229.63 -3.84L229.63 -1.15L233.83 -1.15L233.83 0.00ZM242.30 0.14Q241.32 0.14 240.60 -0.17Q239.88 -0.48 239.47 -1.05Q239.07 -1.63 239.02 -2.43L240.37 -2.43Q240.41 -1.95 240.68 -1.64Q240.94 -1.33 241.37 -1.18Q241.80 -1.02 242.30 -1.02Q242.85 -1.02 243.28 -1.20Q243.72 -1.37 243.97 -1.69Q244.22 -2.01 244.22 -2.43Q244.22 -2.81 244.00 -3.05Q243.78 -3.30 243.41 -3.46Q243.03 -3.62 242.56 -3.74L241.54 -4.02Q240.47 -4.31 239.87 -4.88Q239.27 -5.44 239.27 -6.33Q239.27 -7.09 239.67 -7.66Q240.08 -8.22 240.78 -8.54Q241.48 -8.85 242.36 -8.85Q243.26 -8.85 243.94 -8.53Q244.62 -8.22 245.01 -7.67Q245.40 -7.13 245.42 -6.43L244.12 -6.43Q244.05 -7.03 243.56 -7.36Q243.07 -7.69 242.33 -7.69Q241.81 -7.69 241.42 -7.52Q241.02 -7.36 240.81 -7.07Q240.60 -6.78 240.60 -6.41Q240.60 -6.00 240.85 -5.74Q241.11 -5.48 241.48 -5.34Q241.84 -5.19 242.18 -5.10L243.02 -4.88Q243.44 -4.77 243.88 -4.59Q244.32 -4.41 244.70 -4.13Q245.07 -3.84 245.31 -3.42Q245.54 -3.00 245.54 -2.41Q245.54 -1.67 245.16 -1.09Q244.78 -0.52 244.05 -0.19Q243.33 0.14 242.30 0.14Z" fill="#6B6862"/></g></svg>
